<svg id="increase-white" xmlns="http://www.w3.org/2000/svg" width="82" height="82" viewBox="0 0 82 82">
  <g id="Group_50" data-name="Group 50" transform="translate(32.8)">
    <g id="Group_49" data-name="Group 49">
      <path id="Path_222" data-name="Path 222" d="M200.2,0a8.2,8.2,0,1,0,8.2,8.2A8.2,8.2,0,0,0,200.2,0Zm0,13.667A5.467,5.467,0,1,1,205.667,8.2,5.461,5.461,0,0,1,200.2,13.667Z" transform="translate(-192)" fill="#fff"/>
    </g>
  </g>
  <g id="Group_52" data-name="Group 52" transform="translate(28.7 17.767)">
    <g id="Group_51" data-name="Group 51">
      <path id="Path_223" data-name="Path 223" d="M185.767,104h-.325l-.29.137a10.891,10.891,0,0,1-9.7,0l-.29-.137h-.325A6.831,6.831,0,0,0,168,110.833v8.2a4.09,4.09,0,0,0,4.1,4.1h16.4a4.09,4.09,0,0,0,4.1-4.1v-8.2A6.831,6.831,0,0,0,185.767,104Zm4.1,15.033A1.371,1.371,0,0,1,188.5,120.4H172.1a1.371,1.371,0,0,1-1.367-1.367v-8.2a4.089,4.089,0,0,1,3.81-4.083,13.7,13.7,0,0,0,11.514,0,4.089,4.089,0,0,1,3.81,4.083Z" transform="translate(-168 -104)" fill="#fff"/>
    </g>
  </g>
  <g id="Group_54" data-name="Group 54" transform="translate(61.5 45.1)">
    <g id="Group_53" data-name="Group 53">
      <path id="Path_224" data-name="Path 224" d="M368.2,264a8.2,8.2,0,1,0,8.2,8.2A8.2,8.2,0,0,0,368.2,264Zm0,13.667a5.467,5.467,0,1,1,5.467-5.467A5.461,5.461,0,0,1,368.2,277.667Z" transform="translate(-360 -264)" fill="#fff"/>
    </g>
  </g>
  <g id="Group_56" data-name="Group 56" transform="translate(57.4 62.867)">
    <g id="Group_55" data-name="Group 55">
      <path id="Path_225" data-name="Path 225" d="M353.767,368h-.325l-.29.137a10.891,10.891,0,0,1-9.7,0l-.29-.137h-.325A6.831,6.831,0,0,0,336,374.833v8.2a4.09,4.09,0,0,0,4.1,4.1h16.4a4.09,4.09,0,0,0,4.1-4.1v-8.2A6.831,6.831,0,0,0,353.767,368Zm4.1,15.033A1.371,1.371,0,0,1,356.5,384.4H340.1a1.371,1.371,0,0,1-1.367-1.367v-8.2a4.089,4.089,0,0,1,3.81-4.083,13.7,13.7,0,0,0,11.514,0,4.089,4.089,0,0,1,3.81,4.083Z" transform="translate(-336 -368)" fill="#fff"/>
    </g>
  </g>
  <g id="Group_58" data-name="Group 58" transform="translate(4.1 45.1)">
    <g id="Group_57" data-name="Group 57">
      <path id="Path_226" data-name="Path 226" d="M32.2,264a8.2,8.2,0,1,0,8.2,8.2A8.2,8.2,0,0,0,32.2,264Zm0,13.667a5.467,5.467,0,1,1,5.467-5.467A5.461,5.461,0,0,1,32.2,277.667Z" transform="translate(-24 -264)" fill="#fff"/>
    </g>
  </g>
  <g id="Group_60" data-name="Group 60" transform="translate(0 62.867)">
    <g id="Group_59" data-name="Group 59">
      <path id="Path_227" data-name="Path 227" d="M17.767,368h-.325l-.29.137a10.892,10.892,0,0,1-9.7,0L7.158,368H6.833A6.831,6.831,0,0,0,0,374.833v8.2a4.09,4.09,0,0,0,4.1,4.1H20.5a4.09,4.09,0,0,0,4.1-4.1v-8.2A6.831,6.831,0,0,0,17.767,368Zm4.1,15.033A1.371,1.371,0,0,1,20.5,384.4H4.1a1.371,1.371,0,0,1-1.367-1.367v-8.2a4.089,4.089,0,0,1,3.81-4.083,13.7,13.7,0,0,0,11.514,0,4.089,4.089,0,0,1,3.81,4.083Z" transform="translate(0 -368)" fill="#fff"/>
    </g>
  </g>
  <g id="Group_62" data-name="Group 62" transform="translate(27.333 66.976)">
    <g id="Group_61" data-name="Group 61">
      <path id="Path_228" data-name="Path 228" d="M187.231,394.489h0a1.369,1.369,0,0,0-1.794-.735h0a30.408,30.408,0,0,1-19.492,1.35l1.281-.376a1.362,1.362,0,1,0-.769-2.614l-5.467,1.606c-.017,0-.034.017-.051.034a3.623,3.623,0,0,0-.359.188.6.6,0,0,0-.137.085,1.8,1.8,0,0,0-.342.461,1.57,1.57,0,0,0-.1.564,5.115,5.115,0,0,0,.137.547.129.129,0,0,0,.017.068l2.733,5.228a1.368,1.368,0,1,0,2.426-1.264l-1.11-2.118a32.975,32.975,0,0,0,22.311-1.213A1.413,1.413,0,0,0,187.231,394.489Z" transform="translate(-160 -392.055)" fill="#fff"/>
    </g>
  </g>
  <g id="Group_64" data-name="Group 64" transform="translate(51.929 10.707)">
    <g id="Group_63" data-name="Group 63">
      <path id="Path_229" data-name="Path 229" d="M329.554,87.9a1.371,1.371,0,0,0-1.93,0l-1.948,1.948a32.725,32.725,0,0,0-19.8-27.06,1.366,1.366,0,0,0-1.076,2.511A30.026,30.026,0,0,1,322.875,89.45l-1.538-1.537a1.365,1.365,0,0,0-1.93,1.93l4.1,4.1a1.371,1.371,0,0,0,1.93,0h0l4.1-4.1A1.377,1.377,0,0,0,329.554,87.9Z" transform="translate(-303.977 -62.677)" fill="#fff"/>
    </g>
  </g>
  <g id="Group_66" data-name="Group 66" transform="translate(8.2 8.233)">
    <g id="Group_65" data-name="Group 65">
      <path id="Path_230" data-name="Path 230" d="M69.833,51.8a1.154,1.154,0,0,0-.034-.239c0-.017-.017-.017-.017-.034v-.034a.759.759,0,0,0-.137-.188,2.5,2.5,0,0,0-.154-.222,1.548,1.548,0,0,0-.273-.188.8.8,0,0,0-.154-.1L63.6,48.3a1.352,1.352,0,0,0-1.777.752,1.372,1.372,0,0,0,.649,1.743l2.836,1.3A32.7,32.7,0,0,0,48,80.96a1.367,1.367,0,1,0,2.733,0,30.043,30.043,0,0,1,14.794-25.9l-.991,2.067a1.386,1.386,0,0,0,.632,1.828,1.456,1.456,0,0,0,.6.137A1.369,1.369,0,0,0,67,58.325l2.733-5.706c0-.017,0-.034.017-.034a.8.8,0,0,0,.068-.29c.017-.068.034-.154.051-.222A1.328,1.328,0,0,0,69.833,51.8Z" transform="translate(-48 -48.193)" fill="#fff"/>
    </g>
  </g>
</svg>
