<svg xmlns="http://www.w3.org/2000/svg" width="59.223" height="88.848" viewBox="0 0 59.223 88.848">
  <path id="Path_247" data-name="Path 247" d="M133.809,156.448a1.26,1.26,0,0,0,1.256-1.256v-2.533H142.2a5.615,5.615,0,0,0,5.611-5.632V132.854a19.253,19.253,0,0,1,6.176-13.964A29.627,29.627,0,0,0,134.081,67.6h-.272a29.616,29.616,0,0,0-20.035,51.437,18.77,18.77,0,0,1,6.008,13.838v14.152a5.642,5.642,0,0,0,5.611,5.632h7.139v2.533A1.292,1.292,0,0,0,133.809,156.448ZM115.47,117.195a27.11,27.11,0,0,1,18.339-47.083h.251a27.1,27.1,0,0,1,18.213,46.936,21.788,21.788,0,0,0-6.929,14.571h-23.07A21.258,21.258,0,0,0,115.47,117.195Zm6.825,29.853v-.628H137.41a1.256,1.256,0,1,0,0-2.512H122.295v-3.726h3.768a1.256,1.256,0,0,0,0-2.512h-3.768v-3.538h23.028v3.538H130.585a1.256,1.256,0,0,0,0,2.512h14.738v3.726h-3.391a1.256,1.256,0,1,0,0,2.512h3.391v.628a3.123,3.123,0,0,1-3.1,3.119H125.414A3.141,3.141,0,0,1,122.295,147.048Z" transform="translate(-104.182 -67.6)" fill="#fff"/>
</svg>
