<svg xmlns="http://www.w3.org/2000/svg" width="50.044" height="62.587" viewBox="0 0 50.044 62.587">
  <g id="Group_70" data-name="Group 70" transform="translate(-688.483 -1082.406)">
    <path id="Path_242" data-name="Path 242" d="M245.263,6.615a.766.766,0,0,0,.763-.763V.763a.763.763,0,0,0-1.527,0V5.852A.766.766,0,0,0,245.263,6.615Z" transform="translate(468.852 1082.406)" fill="#fff"/>
    <path id="Path_243" data-name="Path 243" d="M391.163,192.227h5.088a.763.763,0,1,0,0-1.527h-5.088a.763.763,0,0,0,0,1.527Z" transform="translate(341.512 915.965)" fill="#fff"/>
    <path id="Path_244" data-name="Path 244" d="M54.852,190.7H49.763a.763.763,0,1,0,0,1.527h5.088a.763.763,0,1,0,0-1.527Z" transform="translate(639.483 915.965)" fill="#fff"/>
    <path id="Path_245" data-name="Path 245" d="M354.545,50.294a.776.776,0,0,0-1.081,0l-3.969,3.969a.776.776,0,0,0,0,1.081.764.764,0,0,0,1.081,0l3.969-3.969A.776.776,0,0,0,354.545,50.294Z" transform="translate(377.406 1038.701)" fill="#fff"/>
    <path id="Path_246" data-name="Path 246" d="M103.8,55.561a.76.76,0,0,0,.534-1.3l-3.969-3.969a.756.756,0,1,0-1.069,1.069l3.969,3.982A.75.75,0,0,0,103.8,55.561Z" transform="translate(595.778 1038.701)" fill="#fff"/>
    <path id="Path_247" data-name="Path 247" d="M122.185,121.588a.765.765,0,0,0,.763-.763v-1.539h4.338a3.412,3.412,0,0,0,3.409-3.422v-8.612a11.7,11.7,0,0,1,3.753-8.485A18,18,0,0,0,122.35,67.6h-.165a18,18,0,0,0-12.174,31.255,11.406,11.406,0,0,1,3.651,8.409v8.6a3.429,3.429,0,0,0,3.409,3.422h4.338v1.539A.785.785,0,0,0,122.185,121.588ZM111.041,97.736a16.473,16.473,0,0,1,11.144-28.609h.153A16.466,16.466,0,0,1,133.4,97.647a13.239,13.239,0,0,0-4.211,8.854H115.175A12.917,12.917,0,0,0,111.041,97.736Zm4.147,18.14v-.382h9.185a.763.763,0,1,0,0-1.527h-9.185V111.7h2.29a.763.763,0,0,0,0-1.527h-2.29v-2.15h13.993v2.15h-8.956a.763.763,0,0,0,0,1.527h8.956v2.264H127.12a.763.763,0,1,0,0,1.527h2.061v.382a1.9,1.9,0,0,1-1.883,1.9H117.084A1.908,1.908,0,0,1,115.188,115.876Z" transform="translate(591.32 1023.406)" fill="#fff"/>
    <path id="Path_248" data-name="Path 248" d="M264.285,184.511a1.083,1.083,0,0,1,1.7,1.018.763.763,0,0,0,1.514.191,2.592,2.592,0,0,0-1.387-2.646,1.084,1.084,0,0,1,.191-.98.76.76,0,0,0-1.183-.954,2.552,2.552,0,0,0-.572,1.666,2.552,2.552,0,0,0-1.158.458.746.746,0,0,0-.318.7.77.77,0,0,0,.445.623A.778.778,0,0,0,264.285,184.511Z" transform="translate(452.642 924.559)" fill="#fff"/>
    <path id="Path_249" data-name="Path 249" d="M268.219,139.168a3.119,3.119,0,0,0,.369.1,1.594,1.594,0,0,0,.038.242,2.159,2.159,0,0,0,.229.623.758.758,0,0,0,1.03.305.773.773,0,0,0,.305-1.043.689.689,0,0,1-.025-.611.705.705,0,0,1,.483-.382.621.621,0,0,1,.305.013.785.785,0,0,0,.738-.2.761.761,0,0,0-.356-1.272,2.206,2.206,0,0,0-2.315.827.68.68,0,0,1-.522-.2.765.765,0,0,0-1.094,1.069A2.16,2.16,0,0,0,268.219,139.168Z" transform="translate(449.051 962.943)" fill="#fff"/>
    <path id="Path_250" data-name="Path 250" d="M281.343,233.35a1.5,1.5,0,0,1-.611-.242.768.768,0,0,0-.878,1.259,2.994,2.994,0,0,0,1.717.547,3.359,3.359,0,0,0,.369-.025,2.97,2.97,0,0,0,.649,1.437.759.759,0,1,0,1.17-.967,1.507,1.507,0,0,1-.293-1.323c0-.013.013-.025.013-.038a1.406,1.406,0,0,1,.369-.623.765.765,0,0,0-1.081-1.081,2.993,2.993,0,0,0-.649.979A1.578,1.578,0,0,1,281.343,233.35Z" transform="translate(438.281 879.854)" fill="#fff"/>
    <path id="Path_251" data-name="Path 251" d="M251.625,118.621a3.66,3.66,0,0,0,2.213-.751,3.614,3.614,0,0,0,5.228-3.244v-.852a4.575,4.575,0,0,0,1.374-7.48,3.5,3.5,0,0,0-.661-5.241c-.076-.051-.165-.1-.254-.153a4.568,4.568,0,0,0-5.228-5.483v-.064a3.148,3.148,0,1,0-6.3-.013V115A3.624,3.624,0,0,0,251.625,118.621Zm-2.1-23.279a1.616,1.616,0,0,1,1.03-1.514,1.627,1.627,0,0,1,2.048,2.239,1.817,1.817,0,0,0-.254.178.765.765,0,1,0,.9,1.234,3.051,3.051,0,0,1,4.452,3.982c-.013.025-.025.064-.038.089a.768.768,0,0,0-.751-.509.745.745,0,0,0-.7.572,2.165,2.165,0,0,0,.191,1.565.722.722,0,0,1-.153.229.776.776,0,0,0-.013,1.081.764.764,0,0,0,1.081.013,2.023,2.023,0,0,0,.254-.305.522.522,0,0,0,.14.013.775.775,0,0,0,.751-.585.746.746,0,0,0-.407-.852.657.657,0,0,1-.369-.623.758.758,0,0,0,1.285.191,1.978,1.978,0,0,1,.865,1.488,1.909,1.909,0,0,1-.636,1.59,4.544,4.544,0,0,0-1.921-.42.763.763,0,0,0,0,1.527,3.053,3.053,0,1,1,0,6.106.763.763,0,0,0,0,1.527,2.251,2.251,0,0,0,.293-.013v.483a2.1,2.1,0,0,1-4.2,0,.763.763,0,1,0-1.527,0,3.65,3.65,0,0,0,.776,2.239,2.091,2.091,0,0,1-3.066-1.857Z" transform="translate(465.798 1001.935)" fill="#fff"/>
    <path id="Path_252" data-name="Path 252" d="M142.611,117.771a3.625,3.625,0,0,0,5.839-2.875V95.255a3.155,3.155,0,1,0-6.31,0v.064a5.148,5.148,0,0,0-.763-.064,4.568,4.568,0,0,0-4.465,5.546c-.089.051-.165.1-.254.153a3.556,3.556,0,0,0-1.539,2.468,3.5,3.5,0,0,0,.865,2.773,4.575,4.575,0,0,0,1.374,7.48v.852a3.629,3.629,0,0,0,1.7,3.078,3.674,3.674,0,0,0,3.549.165Zm-3.7-3.244v-.483c.089,0,.191.013.293.013a.763.763,0,1,0,0-1.527,3.053,3.053,0,1,1,0-6.106.763.763,0,1,0,0-1.527,4.544,4.544,0,0,0-1.921.42,1.939,1.939,0,0,1-.636-1.59,2.022,2.022,0,0,1,.865-1.488.762.762,0,0,0,.7.267.751.751,0,0,0,.585-.458.666.666,0,0,1-.369.623.757.757,0,0,0,.343,1.437.522.522,0,0,0,.14-.013c.076.1.165.2.254.305a.765.765,0,1,0,1.069-1.094.722.722,0,0,1-.153-.229,2.232,2.232,0,0,0,.191-1.565.757.757,0,0,0-.7-.572.768.768,0,0,0-.751.509c-.013-.025-.025-.064-.038-.089a3.055,3.055,0,0,1,4.465-3.982.765.765,0,1,0,.9-1.234c-.089-.064-.165-.114-.254-.178a1.65,1.65,0,0,1,.254-1.819,1.615,1.615,0,0,1,2.811,1.094V114.9a2.091,2.091,0,0,1-3.066,1.857,3.573,3.573,0,0,0,.776-2.239.763.763,0,1,0-1.527,0,2.1,2.1,0,0,1-2.1,2.1,2.123,2.123,0,0,1-2.137-2.086Z" transform="translate(564.775 1002.022)" fill="#fff"/>
    <path id="Path_253" data-name="Path 253" d="M196.305,182.893a2.429,2.429,0,0,0-.064-.611,2.5,2.5,0,0,0-.509-1.043.76.76,0,0,0-1.183.954,1.084,1.084,0,0,1,.191.98,2.621,2.621,0,0,0-1.387,2.646.763.763,0,0,0,1.514-.191,1.034,1.034,0,0,1,.051-.483,1.074,1.074,0,0,1,1.654-.534.748.748,0,0,0,.763.076.763.763,0,0,0,.445-.623.8.8,0,0,0-.318-.7,2.437,2.437,0,0,0-1.158-.471Z" transform="translate(513.511 924.472)" fill="#fff"/>
    <path id="Path_254" data-name="Path 254" d="M188.128,138.418a.657.657,0,0,1,.623.165.671.671,0,0,1,.191.623.6.6,0,0,1-.076.191.769.769,0,0,0,1.348.738,2.159,2.159,0,0,0,.229-.623c.013-.076.025-.165.038-.242a1.993,1.993,0,0,0,.369-.1,2.206,2.206,0,0,0,.827-.534.765.765,0,1,0-1.094-1.069.68.68,0,0,1-.522.2,2.206,2.206,0,0,0-2.315-.827.761.761,0,0,0-.356,1.272A.728.728,0,0,0,188.128,138.418Z" transform="translate(518.889 962.943)" fill="#fff"/>
    <path id="Path_255" data-name="Path 255" d="M177.379,236.14a3.08,3.08,0,0,0,.649-1.437,2.738,2.738,0,0,0,.852-.013,2.928,2.928,0,0,0,1.234-.509.768.768,0,1,0-.878-1.259,1.471,1.471,0,0,1-1.412.153,2.993,2.993,0,0,0-.649-.979.765.765,0,0,0-1.081,1.081,1.428,1.428,0,0,1,.369.623.047.047,0,0,0,.013.038,1.469,1.469,0,0,1-.293,1.323.763.763,0,0,0,.1,1.069.779.779,0,0,0,1.094-.089Z" transform="translate(528.747 880.028)" fill="#fff"/>
  </g>
</svg>
