<svg xmlns="http://www.w3.org/2000/svg" width="136" height="19.461" viewBox="0 0 136 19.461">
  <g id="Group_2" data-name="Group 2" transform="translate(-59.041 -436.901)">
    <path id="Path_1" data-name="Path 1" d="M133.267,504.365l-1.552-2.722a2.106,2.106,0,0,0-2.453-.879L121,503.481a2.285,2.285,0,0,1-1.332-.025l-8.256-2.553a2.334,2.334,0,0,0-2.589,1.543l-1.2,2.205a1.689,1.689,0,0,0,1.263,2.205l8.821,2.542a9.472,9.472,0,0,0,3.1.537,2,2,0,0,0,.389-.056h0a1.557,1.557,0,0,0,.172-.053l11.212-3.4c.887-.278,1-1.229.69-2.058" transform="translate(-41.009 -53.93)" fill="#0c2230"/>
    <path id="Path_2" data-name="Path 2" d="M79.355,436.9l-20.314,5.025,20.439,6.4,18.89-6.83Zm.064,5.8c-1.021,0-1.788-.431-1.794-.912s.751-.94,1.774-.954,1.73.434,1.735.915-.693.94-1.716.951" fill="#0c2230"/>
    <path id="Path_3" data-name="Path 3" d="M297.652,485.186c0,.295-.534.556-.834.556s-.856-.231-.859-.528l.281-12.03c0-.3.108-.537.423-.542s.428.236.434.534Z" transform="translate(-200.382 -30.229)" fill="#c9657c"/>
    <path id="Path_4" data-name="Path 4" d="M294.6,491.553a1.471,1.471,0,1,1-1.583-1.35c.034,0,.067,0,.1,0a1.421,1.421,0,0,1,1.482,1.354" transform="translate(-196.746 -45.077)" fill="#c9657c"/>
    <path id="Path_5" data-name="Path 5" d="M371.137,437.1h3.751v16.2h8.437v2.923H371.137Z" transform="translate(-263.968 -0.167)" fill="#7e8ea3"/>
    <path id="Path_6" data-name="Path 6" d="M467.38,477.666c.092,2.5,2.194,3.573,4.569,3.573a11.875,11.875,0,0,0,4.107-.623l.556,2.411a14.84,14.84,0,0,1-5.178.879c-4.811,0-7.644-2.781-7.644-7.008,0-3.829,2.5-7.43,7.25-7.43,4.841,0,6.4,3.687,6.4,6.721a7.977,7.977,0,0,1-.122,1.477Zm6.518-2.439a3.034,3.034,0,0,0-3.076-3.376,3.518,3.518,0,0,0-3.443,3.376Z" transform="translate(-342.333 -27.545)" fill="#7e8ea3"/>
    <path id="Path_7" data-name="Path 7" d="M580.011,480.274a20.944,20.944,0,0,0,.211,3.32h-3.379l-.245-1.532h-.092a5.675,5.675,0,0,1-4.385,1.844c-2.984,0-4.661-2.013-4.661-4.113,0-3.49,3.32-5.247,8.8-5.22v-.228c0-.907-.4-2.411-3.017-2.411a8.288,8.288,0,0,0-3.991,1.023l-.729-2.269a11.275,11.275,0,0,1,5.359-1.221c4.752,0,6.118,2.809,6.118,5.815Zm-3.654-3.432c-2.65-.056-5.178.481-5.178,2.581a1.9,1.9,0,0,0,2.13,1.985,3.027,3.027,0,0,0,2.925-1.9,2.417,2.417,0,0,0,.122-.765Z" transform="translate(-430.017 -27.545)" fill="#7e8ea3"/>
    <path id="Path_8" data-name="Path 8" d="M676.213,474.263c0-1.874-.031-3.206-.122-4.449h3.259l.122,2.639h.122a4.391,4.391,0,0,1,4.052-2.95,4.087,4.087,0,0,1,.881.086v3.284a5.429,5.429,0,0,0-1.1-.12,3.22,3.22,0,0,0-3.337,2.639,5.54,5.54,0,0,0-.122,1.076v7.155h-3.754Z" transform="translate(-521.895 -27.574)" fill="#7e8ea3"/>
    <path id="Path_9" data-name="Path 9" d="M748.9,473.892c0-1.588-.031-2.92-.122-4.113h3.29l.183,2.072h.089a5.438,5.438,0,0,1,4.727-2.383c2.589,0,5.27,1.56,5.27,5.929v8.2H758.59v-7.811c0-1.986-.792-3.49-2.834-3.49a3.114,3.114,0,0,0-2.923,2.041,3.335,3.335,0,0,0-.153,1.137v8.123H748.9Z" transform="translate(-583.376 -27.545)" fill="#7e8ea3"/>
    <path id="Path_10" data-name="Path 10" d="M870.753,480.274a20.583,20.583,0,0,0,.214,3.32h-3.381l-.245-1.532h-.089a5.686,5.686,0,0,1-4.388,1.844c-2.984,0-4.658-2.013-4.658-4.113,0-3.49,3.318-5.247,8.8-5.22v-.228c0-.907-.395-2.411-3.015-2.411a8.272,8.272,0,0,0-3.99,1.023l-.731-2.269a11.279,11.279,0,0,1,5.362-1.221c4.75,0,6.118,2.809,6.118,5.815Zm-3.654-3.432c-2.65-.056-5.178.481-5.178,2.581a1.9,1.9,0,0,0,2.133,1.985,3.023,3.023,0,0,0,2.923-1.9,2.339,2.339,0,0,0,.122-.765Z" transform="translate(-675.926 -27.545)" fill="#7e8ea3"/>
  </g>
</svg>
