<svg xmlns="http://www.w3.org/2000/svg" width="161.667" height="210.984" viewBox="0 0 161.667 210.984">
  <g id="Group_32" data-name="Group 32" transform="translate(-323.726 -52.276)">
    <path id="Group_1" data-name="Group 1" d="M577.1,449.88l-15.817-2.522a8.1,8.1,0,0,0-7.492,2.7l-5.6,6.755-16.54,2.307a4.361,4.361,0,0,0-3.918,4.18v5.745h45.488a3.729,3.729,0,0,0,3.879-3.556Z" transform="translate(-195.334 -211.047)" fill="#0e263a"/>
    <path id="Group_1-2" data-name="Group 1" d="M577.1,449.88l-15.817-2.522a8.1,8.1,0,0,0-7.492,2.7l-5.6,6.755-16.54,2.307a4.361,4.361,0,0,0-3.918,4.18v5.745h45.488a3.729,3.729,0,0,0,3.879-3.556Z" transform="translate(-195.334 -211.047)" fill="#0e263a"/>
    <path id="Group_1-3" data-name="Group 1" d="M431.97,64.16s-5.935,6.311-3.247,17.721,9.831,2.148,9.831,2.148L432.186,63.89" transform="translate(-6.139 -6.206)" fill="#282628"/>
    <path id="Group_1-4" data-name="Group 1" d="M556.078,246.979,511.158,218.03l-8.895,2.447L490.7,204.167v-4.485l6.226-5.708,9.34,8.562,3.558-2.854,4,1.223s1.334,8.562,1.779,10.6l31.577,7.747Z" transform="translate(-155.499 -75.713)" fill="#8e5444"/>
    <path id="Group_1-5" data-name="Group 1" d="M483.637,260.029l8.106-34.335L478.3,215.586,474.742,232.3Z" transform="translate(-83.059 -87.261)" fill="#8e5444"/>
    <path id="Group_1-6" data-name="Group 1" d="M431.641,197.208l28.625-24.71-14.2-21.029L416.751,178.5a5.472,5.472,0,0,0,.873,8.157Z" transform="translate(-21.396 -53.002)" fill="#b93e73"/>
    <path id="Group_1-7" data-name="Group 1" d="M347.724,276.835l40.936-6.148c5.4-.79,9.41-4.995,9.547-10l2.477-90.184a19.789,19.789,0,0,0-10.472-17.163l-15.5-6.44a32.884,32.884,0,0,0-19.8-1.665l-14.738,2.47L323.76,189.4Z" transform="translate(84.692 -49.235)" fill="#b93e73"/>
    <path id="Group_1-8" data-name="Group 1" d="M524.245,305.848c.01-2.739-47.1-32.927-109.12-11.148a17.731,17.731,0,0,0-11.768,12.976l-.361,1.78c-1.766,8.709,4.178,17.171,13.557,19.3l78.866,17.906c7.406,1.682,15.213-.966,19.55-6.72C519.693,333.678,524.187,323.17,524.245,305.848Z" transform="translate(-78.96 -125.342)" fill="#85a5cc"/>
    <path id="Group_1-9" data-name="Group 1" d="M402.817,305.219c2.564-1.407,5.892-47.57-47.105-83.668a20.784,20.784,0,0,0-18.32-2.283l-1.853.644c-9.067,3.148-13.845,12.055-10.9,20.314l26.418,75.986S368.507,324.047,402.817,305.219Z" transform="translate(81.354 -88.611)" fill="#b5cbea"/>
    <path id="Group_1-10" data-name="Group 1" d="M543.682,422.827l-6.823,16.246L522.183,435l7.561-17.125Z" transform="translate(-159.095 -195.348)" fill="#8e5444"/>
    <path id="Group_1-11" data-name="Group 1" d="M427.953,394.875l12.794,7.107-5.487,9.867L421.826,404.1Z" transform="translate(-5.184 -183.06)" fill="#8e5444"/>
    <path id="Group_1-12" data-name="Group 1" d="M461.528,310.624l74.608,40.125-10.093,13.343-82.217-24.384a10.7,10.7,0,0,1-7.074-8.822h0c-.919-9.42,6.366-17.852,16.579-19.189Z" transform="translate(-108.114 -138.042)" fill="#85a5cc"/>
    <path id="Group_1-13" data-name="Group 1" d="M487.454,239.114l-52.7,81.237-22.788-6.57,44.2-91.6a11.538,11.538,0,0,1,9.792-6.268h0c10.3-.612,19.312,6.271,20.52,15.664Z" transform="translate(-46.885 -87.414)" fill="#b5cbea"/>
    <path id="Group_1-14" data-name="Group 1" d="M414.541,403.094l-11.77,10.01a6.721,6.721,0,0,0-2.2,7.1l2.47,8.176-8.018,13.463a4,4,0,0,0,1.255,5.39l4.985,3.48,27.556-33.179a3.364,3.364,0,0,0-.737-4.984Z" transform="translate(19.846 -187.452)" fill="#0e263a"/>
    <path id="Group_1-15" data-name="Group 1" d="M557.773,222.246l26.012-.643L563.333,175.21l-26.012.643Z" transform="translate(-206.888 -65.687)" fill="#fdf4f1"/>
    <path id="Group_1-16" data-name="Group 1" d="M360.564,239.819c7.362.637,18.07,4.277,18.07,4.277s75.339-3.613,75.97-3.613l4.974,6.412v6.116l-8.126,8.166L377.745,252.2l-5.8,1.631-7.984,2.447C356.93,250.224,360.564,239.819,360.564,239.819Z" transform="translate(7.58 -100.21)" fill="#8e5444"/>
    <path id="Group_1-17" data-name="Group 1" d="M345.166,170.648l-21.229,30.174s-2.731,16.022,11.469,20.028c6.854,1.934,25.407-10.244,25.407-10.244l.809-29.357s0-11.47-9.831-16.978Z" transform="translate(123.771 -59.843)" fill="#b93e73"/>
    <path id="Group_1-18" data-name="Group 1" d="M387.012,108.172a3.144,3.144,0,0,0-2.8,3.711l5.4,23.646a3.816,3.816,0,0,0,1.666,2.37,13.28,13.28,0,0,0,11.144,1.762c5.536-1.621,7.121-5.367,7.565-7.11a3.449,3.449,0,0,0,.02-1.6l-5.095-21.736a4.1,4.1,0,0,0-4.652-2.933Z" transform="translate(44.614 -28.834)" fill="#8e5444"/>
    <path id="Group_1-19" data-name="Group 1" d="M407.647,56.85c3.541,1.073,5.771,3.882,5.573,6.98-.307,4.795-1.2,11.327-1.768,15.44-.749,5.469-.562,11.795-6.6,15.4A24.84,24.84,0,0,1,385.663,96.8c-6.882-2.1-7.787-8.7-7.673-14.082.166-7.758,2.5-18.982,2.5-18.982s.017-7.89,12.507-8.641A39.394,39.394,0,0,1,407.647,56.85Z" transform="translate(44.601 -1.461)" fill="#8e5444"/>
    <ellipse id="Group_1-20" data-name="Group 1" cx="0.966" cy="0.886" rx="0.966" ry="0.886" transform="translate(441.844 73.671)" fill="#383737"/>
    <ellipse id="Group_1-21" data-name="Group 1" cx="0.966" cy="0.886" rx="0.966" ry="0.886" transform="translate(429.202 72.637)" fill="#383737"/>
    <path id="Group_1-22" data-name="Group 1" d="M404.939,85.4a10.281,10.281,0,0,0-4.949-1.824" transform="translate(41.715 -16.726)" fill="none" stroke="#282628" stroke-linecap="round" stroke-miterlimit="10" stroke-width="1.97"/>
    <path id="Group_1-23" data-name="Group 1" d="M432.527,82.849a10.587,10.587,0,0,0-5.158,1.247" transform="translate(0.22 -16.331)" fill="none" stroke="#282628" stroke-linecap="round" stroke-miterlimit="10" stroke-width="1.97"/>
    <path id="Group_1-24" data-name="Group 1" d="M422.125,119.235a10.167,10.167,0,0,1-4.625-.355" transform="translate(15.635 -35.589)" fill="none" stroke="#5e372e" stroke-linecap="round" stroke-miterlimit="10" stroke-width="1.97"/>
    <path id="Group_1-25" data-name="Group 1" d="M436.368,98.61c-2.1-1.274-4.437-1.678-5.623.633a3.715,3.715,0,0,0-.178,2.724c.978,3.382,4.445,4.532,7.951,4.514,2.08-.011,2.509-1.649,2.019-3.219A9.2,9.2,0,0,0,436.368,98.61Z" transform="translate(-9.51 -24.208)" fill="#8e5444"/>
    <path id="Group_1-26" data-name="Group 1" d="M421.99,102.025l-.841,2.957a.971.971,0,0,0,.139.822l.7,1.019" transform="translate(13.935 -26.582)" fill="none" stroke="#5e372e" stroke-linecap="round" stroke-miterlimit="10" stroke-width="1.97"/>
    <path id="Group_1-27" data-name="Group 1" d="M377.127,86.043s-2.122-8.7-.287-15.72a2.622,2.622,0,0,1,1.794-1.812c.818-.25,1.747-.268,2.138.694,0,0,1.225,12.19-.306,16.582a2.551,2.551,0,0,1-.9,1.208C378.759,87.587,377.438,88.188,377.127,86.043Z" transform="translate(77.558 -8.598)" fill="#282628"/>
    <path id="Group_1-28" data-name="Group 1" d="M377.241,102.153c1.976-1.429,4.271-2.008,5.661.2a3.732,3.732,0,0,1,.423,2.7c-.67,3.445-4.021,4.853-7.517,5.1-2.074.147-2.65-1.453-2.3-3.055A9.015,9.015,0,0,1,377.241,102.153Z" transform="translate(76.748 -25.974)" fill="#8e5444"/>
    <path id="Group_1-29" data-name="Group 1" d="M407.1,59.907a.656.656,0,0,0-.83-.548c-2.565.624-10.888,2.5-15.941,1.885-5.867-.717-7.522-2.234-7.522-2.234a7.3,7.3,0,0,0-4.138,4.173c-3.019,7.967-2.069-.759-2.069-.759s3.725-12.141,18.209-9.864,16.737,4.7,17.06,9.178a10.436,10.436,0,0,1-2.207,6.291,1.5,1.5,0,0,1-2.56-.805Z" transform="translate(46.722)" fill="#282628"/>
  </g>
</svg>
